<?xml version="1.0" encoding="utf-8"?>
<!-- Generator: Adobe Illustrator 24.3.0, SVG Export Plug-In . SVG Version: 6.00 Build 0)  -->
<svg version="1.1" id="Layer_1" xmlns="http://www.w3.org/2000/svg" xmlns:xlink="http://www.w3.org/1999/xlink" x="0px" y="0px"
	 viewBox="0 0 519.5 420.8" style="enable-background:new 0 0 519.5 420.8;" xml:space="preserve">
<style type="text/css">
	.st0{fill:#89FFE7;}
	.st1{fill:#FFFFFF;}
</style>
<g>
	<rect y="155.9" class="st0" width="519.5" height="40.9"/>
	<rect y="219.1" class="st0" width="519.5" height="40.9"/>
	<rect y="278.8" class="st0" width="519.5" height="40.9"/>
</g>
<path class="st0" d="M329,124.7c0-52.6,42.7-95.3,95.3-95.3s95.3,42.7,95.3,95.3"/>
<rect x="128.3" y="106.6" class="st0" width="239.3" height="239.3"/>
<rect x="160.7" y="74.1" class="st1" width="239.3" height="239.3"/>
<g>
	<g>
		<path class="st1" d="M223.1,404.6c0,9-7.3,16.2-16.2,16.2c-8.9,0-16.2-7.3-16.2-16.2c0-9,7.3-16.2,16.2-16.2
			S223.1,395.6,223.1,404.6z"/>
	</g>
	<g>
		<path class="st1" d="M282.4,404.6c0,9-7.3,16.2-16.2,16.2c-9,0-16.2-7.3-16.2-16.2c0-9,7.2-16.2,16.2-16.2
			C275.1,388.3,282.4,395.6,282.4,404.6z"/>
	</g>
	<g>
		<path class="st1" d="M341.7,404.6c0,9-7.3,16.2-16.2,16.2c-9,0-16.2-7.3-16.2-16.2c0-9,7.3-16.2,16.2-16.2
			C334.4,388.3,341.7,395.6,341.7,404.6z"/>
	</g>
	<g>
		<path class="st1" d="M401,404.6c0,9-7.3,16.2-16.2,16.2c-9,0-16.2-7.3-16.2-16.2c0-9,7.3-16.2,16.2-16.2
			C393.7,388.3,401,395.6,401,404.6z"/>
	</g>
	<g>
		<path class="st1" d="M460.3,404.6c0,9-7.3,16.2-16.2,16.2c-9,0-16.2-7.3-16.2-16.2c0-9,7.3-16.2,16.2-16.2
			C453,388.3,460.3,395.6,460.3,404.6z"/>
	</g>
	<g>
		<path class="st1" d="M519.6,404.6c0,9-7.3,16.2-16.2,16.2c-9,0-16.2-7.3-16.2-16.2c0-9,7.3-16.2,16.2-16.2
			C512.3,388.3,519.6,395.6,519.6,404.6z"/>
	</g>
	<g>
		<path class="st1" d="M32.5,16.2c0,9-7.3,16.2-16.2,16.2S0.1,25.1,0.1,16.2C0.1,7.2,7.4,0,16.3,0S32.5,7.2,32.5,16.2z"/>
	</g>
	<g>
		<path class="st1" d="M91.8,16.2c0,9-7.3,16.2-16.2,16.2c-9,0-16.2-7.3-16.2-16.2c0-9,7.2-16.2,16.2-16.2
			C84.5,0,91.8,7.2,91.8,16.2z"/>
	</g>
	<g>
		<path class="st1" d="M151.1,16.2c0,9-7.3,16.2-16.2,16.2c-9,0-16.2-7.3-16.2-16.2c0-9,7.3-16.2,16.2-16.2
			C143.8,0,151.1,7.2,151.1,16.2z"/>
	</g>
	<g>
		<path class="st1" d="M210.4,16.2c0,9-7.3,16.2-16.2,16.2c-9,0-16.2-7.3-16.2-16.2c0-9,7.3-16.2,16.2-16.2
			C203.1,0,210.4,7.2,210.4,16.2z"/>
	</g>
	<g>
		<path class="st1" d="M269.7,16.2c0,9-7.3,16.2-16.2,16.2c-9,0-16.2-7.3-16.2-16.2c0-9,7.3-16.2,16.2-16.2
			C262.4,0,269.7,7.2,269.7,16.2z"/>
	</g>
	<g>
		<path class="st1" d="M329,16.2c0,9-7.3,16.2-16.2,16.2c-9,0-16.2-7.3-16.2-16.2c0-9,7.3-16.2,16.2-16.2C321.7,0,329,7.2,329,16.2z
			"/>
	</g>
</g>
</svg>
