<?xml version="1.0" encoding="utf-8"?>
<!-- Generator: Adobe Illustrator 24.3.0, SVG Export Plug-In . SVG Version: 6.00 Build 0)  -->
<svg version="1.1" id="Layer_1" xmlns="http://www.w3.org/2000/svg" xmlns:xlink="http://www.w3.org/1999/xlink" x="0px" y="0px"
	 viewBox="0 0 860.1 1147.3" style="enable-background:new 0 0 860.1 1147.3;" xml:space="preserve">
<style type="text/css">
	.st0{fill:#FFFFFF;}
	.st1{fill:#89FFE7;}
</style>
<polygon class="st0" points="0,860.2 287.1,860.2 0,1147.3 "/>
<polygon class="st1" points="0,285.9 287.1,285.9 0,573.4 "/>
<rect x="287.1" y="285.9" class="st0" width="286.9" height="287.9"/>
<g>
	<g>
		<polygon class="st1" points="418.9,286.3 705.9,0 728.1,0 441.2,286.3 		"/>
		<polygon class="st1" points="374.8,286.3 661.7,0 683.9,0 397,286.3 		"/>
		<polygon class="st1" points="330.7,286.3 617.6,0 639.8,0 352.9,286.3 		"/>
		<polygon class="st1" points="286.5,286.3 573.4,0 595.7,0 308.7,286.3 		"/>
		<polygon class="st1" points="551.4,286.3 838.3,0 860.5,0 573.6,286.3 		"/>
		<polygon class="st1" points="507.2,286.3 794.1,0 816.4,0 529.4,286.3 		"/>
		<polygon class="st1" points="463.1,286.3 750,0 772.2,0 485.3,286.3 		"/>
	</g>
</g>
<g>
	<g>
		<g>
			<polygon class="st1" points="132.4,860.2 419.3,573.9 441.6,573.9 154.7,860.2 			"/>
			<polygon class="st1" points="88.3,860.2 375.2,573.9 397.4,573.9 110.5,860.2 			"/>
			<polygon class="st1" points="44.1,860.2 331.1,573.9 353.3,573.9 66.4,860.2 			"/>
			<polygon class="st1" points="0,860.2 286.9,573.9 309.1,573.9 22.2,860.2 			"/>
			<polygon class="st1" points="264.8,860.2 551.8,573.9 574,573.9 287.1,860.2 			"/>
			<polygon class="st1" points="220.7,860.2 507.6,573.9 529.8,573.9 242.9,860.2 			"/>
			<polygon class="st1" points="176.6,860.2 463.5,573.9 485.7,573.9 198.8,860.2 			"/>
		</g>
	</g>
	<g>
		<g>
			<polygon class="st1" points="441.8,860.2 728.7,573.9 751,573.9 464,860.2 			"/>
			<polygon class="st1" points="397.7,860.2 684.6,573.9 706.8,573.9 419.9,860.2 			"/>
			<polygon class="st1" points="353.5,860.2 640.5,573.9 662.7,573.9 375.8,860.2 			"/>
			<polygon class="st1" points="309.4,860.2 596.3,573.9 618.5,573.9 331.6,860.2 			"/>
			<polygon class="st1" points="530.1,860.2 817,573.9 839.2,573.9 552.3,860.2 			"/>
			<polygon class="st1" points="486,860.2 772.9,573.9 795.1,573.9 508.2,860.2 			"/>
		</g>
	</g>
</g>
<polygon class="st1" points="860.1,552 552.3,860.2 552.3,573 860.9,264.9 "/>
</svg>
