<?xml version="1.0" encoding="utf-8"?>
<!-- Generator: Adobe Illustrator 24.3.0, SVG Export Plug-In . SVG Version: 6.00 Build 0)  -->
<svg version="1.1" id="Layer_1" xmlns="http://www.w3.org/2000/svg" xmlns:xlink="http://www.w3.org/1999/xlink" x="0px" y="0px"
	 viewBox="0 0 817 838.1" style="enable-background:new 0 0 817 838.1;" xml:space="preserve">
<style type="text/css">
	.st0{fill:#89FFE7;}
	.st1{fill:#FFFFFF;}
</style>
<polygon class="st0" points="243.5,594.7 243.5,330 0,594.7 "/>
<polygon class="st0" points="243.5,838.1 243.5,594.7 0,838.1 "/>
<polygon class="st0" points="817,838.1 817,550.6 529.4,838.1 "/>
<rect x="529.4" y="264.9" class="st0" width="287.6" height="286.5"/>
<g>
	<g>
		<polygon class="st1" points="243.5,705.9 529.4,419.3 529.4,397.1 243.5,683.7 		"/>
		<polygon class="st1" points="243.5,750 529.4,463.4 529.4,441.2 243.5,727.8 		"/>
		<polygon class="st1" points="243.5,794 529.4,507.5 529.4,485.3 243.5,771.8 		"/>
		<polygon class="st1" points="243.5,838.1 529.4,551.6 529.4,529.4 243.5,815.9 		"/>
		<polygon class="st1" points="243.5,573.6 529.4,287.1 529.4,264.9 243.5,551.4 		"/>
		<polygon class="st1" points="243.5,617.7 529.4,331.2 529.4,309 243.5,595.5 		"/>
		<polygon class="st1" points="243.5,661.8 529.4,375.3 529.4,353.1 243.5,639.6 		"/>
	</g>
	<g>
		<polygon class="st1" points="243.5,396.9 529.4,110.4 529.4,88.2 243.5,374.7 		"/>
		<polygon class="st1" points="243.5,441 529.4,154.4 529.4,132.2 243.5,418.8 		"/>
		<polygon class="st1" points="243.5,485.1 529.4,198.5 529.4,176.3 243.5,462.9 		"/>
		<polygon class="st1" points="243.5,529.1 529.4,242.6 529.4,220.4 243.5,506.9 		"/>
		<polygon class="st1" points="243.5,308.7 529.4,22.2 529.4,0 243.5,286.5 		"/>
		<polygon class="st1" points="243.5,352.8 529.4,66.3 529.4,44.1 243.5,330.6 		"/>
	</g>
</g>
</svg>
