<?xml version="1.0" encoding="utf-8"?>
<!-- Generator: Adobe Illustrator 24.3.0, SVG Export Plug-In . SVG Version: 6.00 Build 0)  -->
<svg version="1.1" id="Layer_1" xmlns="http://www.w3.org/2000/svg" xmlns:xlink="http://www.w3.org/1999/xlink" x="0px" y="0px"
	 viewBox="0 0 753.2 1128.3" style="enable-background:new 0 0 753.2 1128.3;" xml:space="preserve">
<style type="text/css">
	.st0{fill:#89FFE7;}
	.st1{fill:#FFFFFF;}
</style>
<polygon class="st0" points="752.2,751.5 752.2,375.6 377,751.5 "/>
<polygon class="st0" points="753.2,1128.3 752.2,751.5 377.4,1128.3 "/>
<rect y="751.5" class="st1" width="377" height="377"/>
<g>
	<g>
		<rect x="374.3" y="221" class="st1" width="377.9" height="22.3"/>
		<rect x="373.4" y="265.2" class="st1" width="378.9" height="22.3"/>
		<rect x="373.9" y="309.4" class="st1" width="378.3" height="22.3"/>
		<rect x="374.4" y="353.6" class="st1" width="377.8" height="22.3"/>
		<polygon class="st1" points="375.2,110.6 752.2,110.6 752.2,88.4 376.9,88.4 		"/>
		<rect x="375.8" y="132.6" class="st1" width="375.4" height="22.3"/>
		<rect x="374.3" y="176.8" class="st1" width="377.9" height="22.3"/>
	</g>
	<g>
		<rect x="374.3" y="132.6" class="st1" width="377.9" height="22.3"/>
		<rect x="373.4" y="176.8" class="st1" width="378.9" height="22.3"/>
		<rect x="373.9" y="221" class="st1" width="378.3" height="22.3"/>
		<rect x="374.4" y="265.2" class="st1" width="377.8" height="22.3"/>
		<polygon class="st1" points="375.2,22.2 752.2,22.2 752.2,0 376.9,0 		"/>
		<rect x="375.8" y="44.2" class="st1" width="375.4" height="22.3"/>
		<rect x="374.3" y="88.4" class="st1" width="377.9" height="22.3"/>
	</g>
</g>
<polygon class="st0" points="375.8,375.6 0,751.5 0,375.6 376.9,0 "/>
</svg>
